<?xml version="1.0" encoding="UTF-8" standalone="no"?>
<!-- Created with Inkscape (http://www.inkscape.org/) -->

<svg
   version="1.1"
   id="svg1"
   width="1024"
   height="1024"
   viewBox="0 0 1024 1024"
   sodipodi:docname="logo2.svg"
   inkscape:version="1.4.2 (f4327f4, 2025-05-13)"
   xmlns:inkscape="http://www.inkscape.org/namespaces/inkscape"
   xmlns:sodipodi="http://sodipodi.sourceforge.net/DTD/sodipodi-0.dtd"
   xmlns="http://www.w3.org/2000/svg"
   xmlns:svg="http://www.w3.org/2000/svg">
  <defs
     id="defs1" />
  <sodipodi:namedview
     id="namedview1"
     pagecolor="#ffffff"
     bordercolor="#000000"
     borderopacity="0.25"
     inkscape:showpageshadow="2"
     inkscape:pageopacity="0.0"
     inkscape:pagecheckerboard="0"
     inkscape:deskcolor="#d1d1d1"
     showgrid="false"
     inkscape:zoom="0.79589844"
     inkscape:cx="512"
     inkscape:cy="512"
     inkscape:window-width="1920"
     inkscape:window-height="1017"
     inkscape:window-x="-8"
     inkscape:window-y="-8"
     inkscape:window-maximized="1"
     inkscape:current-layer="g1" />
  <g
     inkscape:groupmode="layer"
     inkscape:label="Image"
     id="g1">
    <path
       style="fill:#0993a1"
       d="m 504.9506,875.86392 c -3.05216,-0.40804 -8.05014,-1.67753 -11.10661,-2.8211 -5.83076,-2.18157 -30.01031,-16.07559 -65.34399,-37.54789 -11.55,-7.01894 -37.2,-22.53553 -57,-34.48132 -19.8,-11.94578 -47.25,-28.60946 -61,-37.03038 -27.15544,-16.63084 -49.75422,-30.41217 -81.21735,-49.52845 -11.11954,-6.75599 -22.2663,-13.75506 -24.77057,-15.55349 -5.03335,-3.61468 -11.11422,-11.07282 -14.46292,-17.73867 -5.1136,-10.17898 -5.05046,-8.03959 -5.0318,-170.50059 0.0192,-167.06719 -0.31876,-158.15624 6.51277,-171.72186 C 198.45646,325.18632 195.61091,327.1881 282,275.29668 431.42948,185.53873 483.58089,154.559 491.44659,150.8782 c 11.53703,-5.39883 25.35436,-6.07455 37.42958,-1.83046 3.07008,1.07905 12.11638,5.85706 20.1029,10.6178 56.39106,33.61456 229.65136,137.27739 234.52093,140.31549 3.3,2.05885 12.68836,7.74288 20.86302,12.63117 16.51116,9.87335 23.58621,16.38228 28.59716,26.30891 6.44314,12.76379 6.09079,2.15029 5.80208,174.77055 -0.29599,176.97582 0.52601,159.79939 -8.30144,173.46525 -5.33193,8.25439 -8.62037,10.73511 -38.96082,29.39101 -81.6562,50.20923 -245.29965,148.81334 -255.19686,153.77003 -10.46993,5.24352 -20.43255,7.00581 -31.35254,5.54597 z M 521.5,844.51388 c 1.65,-0.67796 12.9,-7.22418 25,-14.54716 12.1,-7.32297 37.75,-22.83839 57,-34.4787 19.25,-11.64031 46.7,-28.27744 61,-36.97141 14.3,-8.69396 48.5,-29.38719 76,-45.98496 27.5,-16.59777 52.50885,-31.79591 55.57522,-33.77363 6.94474,-4.47917 11.50666,-9.59349 12.92622,-14.49144 0.7734,-2.66851 1.0052,-47.93323 0.7951,-155.26658 L 809.5,357.5 l -2.15842,-4 c -3.88517,-7.20005 4.33713,-2.01864 -139.34158,-87.80805 -10.175,-6.07541 -32.45,-19.43794 -49.5,-29.69451 -68.0502,-40.93618 -93.89203,-56.27193 -97.85262,-58.07031 -5.25042,-2.38406 -12.0057,-2.40531 -17.14738,-0.054 -2.2,1.00609 -11.425,6.3265 -20.5,11.82314 -16.62979,10.07249 -149.04708,89.39882 -213,127.60047 -47.55159,28.40447 -49.83083,29.97015 -53.23339,36.5674 L 214,359.22838 l 0,150.76009 c 0,167.58537 -0.48828,155.84617 6.79287,163.3134 2.03892,2.09103 5.50713,4.82648 7.70713,6.07877 2.2,1.25229 14.575,8.71785 27.5,16.59014 12.925,7.87228 39.7,24.08623 59.5,36.03099 19.8,11.94476 57.375,34.66894 83.5,50.49816 66.6019,40.35432 99.12052,59.96669 101.79654,61.39472 5.6402,3.00985 14.25794,3.2676 20.70346,0.61923 z M 370.25,724.28132 230,630.60595 V 550.31417 470.0224 l 17.75,10.83723 c 9.7625,5.96048 23.15,14.23956 29.75,18.39795 l 12,7.56073 0.5,48.04982 0.5,48.04982 10,6.40355 c 5.5,3.52195 24.175,15.68225 41.5,27.02289 17.325,11.34063 36.675,23.94046 43,27.99962 6.325,4.05915 25.45,16.59305 42.5,27.85309 17.05,11.26005 43.05069,28.41068 57.77932,38.11251 l 26.77931,17.63969 6.72069,-4.32068 C 522.47569,741.25225 534.95,733.09374 546.5,725.4986 c 11.55,-7.59513 25.275,-16.59422 30.5,-19.99798 5.225,-3.40375 30.2,-19.88379 55.5,-36.62231 25.3,-16.73852 58.45698,-38.52121 73.68218,-48.40599 L 733.86436,602.5 l 0.31782,-47.95236 0.31782,-47.95235 13.09977,-8.2143 c 7.20487,-4.51786 20.36737,-12.7335 29.25,-18.25697 L 793,470.08135 v 80.83913 80.83913 L 747.75,661.748 c -24.8875,16.49361 -61.225,40.55013 -80.75,53.45893 -19.525,12.90881 -58.225,38.53039 -86,56.93685 -53.49092,35.44838 -69.42751,45.86974 -70.09128,45.83456 -0.2248,-0.0119 -63.52122,-42.17557 -140.65872,-93.69702 z M 493.47639,692.69223 475.5,681.38445 v -21.31598 -21.31598 l 17.82411,-11.37625 C 503.12737,621.11931 511.40567,616 511.72032,616 c 0.31466,0 8.59644,5.0625 18.40395,11.25 15.54148,9.80502 17.90448,11.63533 18.39739,14.25 0.31105,1.65 0.43343,11.27907 0.27194,21.39793 l -0.2936,18.39792 -18,11.31951 c -9.9,6.22572 -18.23563,11.33416 -18.52361,11.35207 -0.28799,0.0179 -8.61299,-5.05593 -18.5,-11.2752 z m -70.74462,-78.72956 c -6.4986,-1.09316 -12.65425,-5.2255 -16.90491,-11.34841 -3.5406,-5.10009 -31.41871,-49.61914 -56.89477,-90.85627 L 335.5,490.01597 317,478.31896 c -36.87262,-23.31349 -73.62958,-46.63443 -79.48297,-50.42901 -3.29063,-2.13323 -6.33379,-3.99554 -6.76257,-4.13846 -0.42879,-0.14293 -0.66145,-16.77032 -0.51703,-36.94976 L 230.5,350.11184 254,364.41696 c 51.47306,31.33312 93.22746,57.04316 121.5,74.81295 l 10,6.28517 11.7642,19.99246 c 6.4703,10.99585 16.58788,28.42131 22.48349,38.72325 8.24786,14.4122 10.9843,18.44702 11.86864,17.5 0.63214,-0.67694 12.7562,-20.13079 26.94237,-43.23079 32.85554,-53.50023 31.83959,-51.93927 35.74156,-54.91545 7.13866,-5.44492 17.19807,-7.25348 26.29562,-4.72764 9.95614,2.76422 11.24267,4.54871 52.37199,72.64309 8.96947,14.85 17.07838,28.27192 18.01981,29.82648 l 1.71169,2.82648 18.01029,-30.82648 C 620.61532,476.37192 630.83829,458.9 633.42737,454.5 c 3.62056,-6.15294 5.90399,-8.79675 9.89002,-11.45089 C 657.91939,433.32621 791.52911,350 792.51733,350 792.7828,350 793,366.55158 793,386.7813 l 0,36.7813 -18.25,11.38174 c -10.0375,6.25995 -33.68459,21.2951 -52.54909,33.41143 l -34.29909,22.0297 -4.35123,7.05727 c -44.37325,71.9689 -64.70759,104.28685 -68.25709,108.48294 -4.50455,5.32512 -12.05905,8.42904 -20.42781,8.39317 -8.43043,-0.0361 -14.50114,-2.83828 -19.87882,-9.17579 C 572.81994,602.58938 562.12123,586.55 551.21196,569.5 540.30268,552.45 526.96633,531.61433 521.57562,523.19852 l -9.80129,-15.30148 -3.63716,6.11458 c -2.00045,3.36301 -11.27875,17.89868 -20.61846,32.30148 -39.35551,60.69029 -39.27774,60.57813 -44.14675,63.66597 -3.85196,2.44284 -12.73168,5.31276 -15.17118,4.90331 -0.38543,-0.0647 -2.84648,-0.47856 -5.46901,-0.91971 z"
       id="path80" />
  </g>
</svg>
